<mxfile host="app.diagrams.net" modified="2024-03-02T17:45:44.749Z" agent="Mozilla/5.0 (Windows NT 10.0; Win64; x64) AppleWebKit/537.36 (KHTML, like Gecko) Chrome/122.0.0.0 Safari/537.36" etag="iKVhbv4tFCJ_nOFQBR_q" version="24.0.1" type="device">
  <diagram name="1 oldal" id="5f3HVo8hbHReEV7IO18l">
    <mxGraphModel dx="2261" dy="709" grid="1" gridSize="10" guides="1" tooltips="1" connect="1" arrows="1" fold="1" page="1" pageScale="1" pageWidth="827" pageHeight="1169" math="0" shadow="0">
      <root>
        <mxCell id="0" />
        <mxCell id="1" parent="0" />
        <mxCell id="8r3OX-Z8Waoc3_b8A32Y-9" value="" style="group" parent="1" vertex="1" connectable="0">
          <mxGeometry x="120" y="130" width="480" height="380" as="geometry" />
        </mxCell>
        <mxCell id="8r3OX-Z8Waoc3_b8A32Y-10" value="" style="html=1;dashed=0;whitespace=wrap;rounded=0;sketch=0;strokeColor=#000000;align=left;" parent="8r3OX-Z8Waoc3_b8A32Y-9" vertex="1">
          <mxGeometry y="-12.22" width="480" height="392.22" as="geometry" />
        </mxCell>
        <mxCell id="8r3OX-Z8Waoc3_b8A32Y-11" value="3." style="text;html=1;resizable=0;autosize=1;align=center;verticalAlign=middle;points=[];fillColor=none;rounded=0;sketch=0;strokeColor=#000000;" parent="8r3OX-Z8Waoc3_b8A32Y-9" vertex="1">
          <mxGeometry y="-12.216111111111115" width="30" height="30" as="geometry" />
        </mxCell>
        <mxCell id="8r3OX-Z8Waoc3_b8A32Y-13" value="Regisztrációs oldal" style="rounded=0;whiteSpace=wrap;html=1;sketch=0;strokeColor=#000000;align=left;" parent="8r3OX-Z8Waoc3_b8A32Y-9" vertex="1">
          <mxGeometry x="30" y="-12.22" width="450" height="30" as="geometry" />
        </mxCell>
        <mxCell id="8r3OX-Z8Waoc3_b8A32Y-16" value="" style="group" parent="8r3OX-Z8Waoc3_b8A32Y-9" vertex="1" connectable="0">
          <mxGeometry x="40" y="50" width="140" height="90" as="geometry" />
        </mxCell>
        <mxCell id="8r3OX-Z8Waoc3_b8A32Y-17" value="" style="html=1;dashed=0;whitespace=wrap;rounded=0;sketch=0;strokeColor=#000000;align=left;" parent="8r3OX-Z8Waoc3_b8A32Y-16" vertex="1">
          <mxGeometry width="140" height="90" as="geometry" />
        </mxCell>
        <mxCell id="8r3OX-Z8Waoc3_b8A32Y-18" value="3.1" style="text;html=1;resizable=0;autosize=1;align=center;verticalAlign=middle;points=[];fillColor=none;rounded=0;sketch=0;strokeColor=#000000;" parent="8r3OX-Z8Waoc3_b8A32Y-16" vertex="1">
          <mxGeometry y="0.004999999999999893" width="40" height="30" as="geometry" />
        </mxCell>
        <mxCell id="8r3OX-Z8Waoc3_b8A32Y-19" value="Regisztrációs adatok&lt;br&gt;megadása" style="text;html=1;resizable=0;autosize=1;align=center;verticalAlign=middle;points=[];fillColor=none;strokeColor=none;rounded=0;sketch=0;" parent="8r3OX-Z8Waoc3_b8A32Y-16" vertex="1">
          <mxGeometry x="5" y="36" width="130" height="40" as="geometry" />
        </mxCell>
        <mxCell id="8r3OX-Z8Waoc3_b8A32Y-20" value="Regisztrációs lap" style="rounded=0;whiteSpace=wrap;html=1;sketch=0;strokeColor=#000000;align=left;" parent="8r3OX-Z8Waoc3_b8A32Y-16" vertex="1">
          <mxGeometry x="40" width="100" height="30" as="geometry" />
        </mxCell>
        <mxCell id="8r3OX-Z8Waoc3_b8A32Y-70" value="" style="dashed=0;aspect=fixed;verticalLabelPosition=bottom;verticalAlign=top;align=center;shape=mxgraph.gmdl.star;strokeColor=none;fillColor=#737373;shadow=0;sketch=0;" parent="8r3OX-Z8Waoc3_b8A32Y-16" vertex="1">
          <mxGeometry x="124" y="76" width="10" height="10" as="geometry" />
        </mxCell>
        <mxCell id="8r3OX-Z8Waoc3_b8A32Y-78" value="" style="endArrow=none;html=1;rounded=0;exitX=0.75;exitY=1;exitDx=0;exitDy=0;entryX=1;entryY=0.75;entryDx=0;entryDy=0;" parent="8r3OX-Z8Waoc3_b8A32Y-16" source="8r3OX-Z8Waoc3_b8A32Y-17" target="8r3OX-Z8Waoc3_b8A32Y-17" edge="1">
          <mxGeometry width="50" height="50" relative="1" as="geometry">
            <mxPoint x="155" y="280" as="sourcePoint" />
            <mxPoint x="190" y="255" as="targetPoint" />
          </mxGeometry>
        </mxCell>
        <mxCell id="8r3OX-Z8Waoc3_b8A32Y-21" value="Adatkezelő" style="group" parent="8r3OX-Z8Waoc3_b8A32Y-9" vertex="1" connectable="0">
          <mxGeometry x="40" y="180" width="155" height="100" as="geometry" />
        </mxCell>
        <mxCell id="8r3OX-Z8Waoc3_b8A32Y-22" value="" style="html=1;dashed=0;whitespace=wrap;rounded=0;sketch=0;strokeColor=#000000;align=left;" parent="8r3OX-Z8Waoc3_b8A32Y-21" vertex="1">
          <mxGeometry width="140" height="100" as="geometry" />
        </mxCell>
        <mxCell id="8r3OX-Z8Waoc3_b8A32Y-23" value="3.2" style="text;html=1;resizable=0;autosize=1;align=center;verticalAlign=middle;points=[];fillColor=none;rounded=0;sketch=0;strokeColor=#000000;" parent="8r3OX-Z8Waoc3_b8A32Y-21" vertex="1">
          <mxGeometry width="40" height="30" as="geometry" />
        </mxCell>
        <mxCell id="8r3OX-Z8Waoc3_b8A32Y-24" value="Adatok hiánya &lt;br&gt;vagy nem megfelelő &lt;br&gt;megadása" style="text;html=1;resizable=0;autosize=1;align=center;verticalAlign=middle;points=[];fillColor=none;strokeColor=none;rounded=0;sketch=0;" parent="8r3OX-Z8Waoc3_b8A32Y-21" vertex="1">
          <mxGeometry x="5" y="30" width="130" height="60" as="geometry" />
        </mxCell>
        <mxCell id="8r3OX-Z8Waoc3_b8A32Y-25" value="Hibaüzenet" style="rounded=0;whiteSpace=wrap;html=1;sketch=0;strokeColor=#000000;align=left;" parent="8r3OX-Z8Waoc3_b8A32Y-21" vertex="1">
          <mxGeometry x="40" width="100" height="30" as="geometry" />
        </mxCell>
        <mxCell id="8r3OX-Z8Waoc3_b8A32Y-68" value="" style="dashed=0;aspect=fixed;verticalLabelPosition=bottom;verticalAlign=top;align=center;shape=mxgraph.gmdl.star;strokeColor=none;fillColor=#737373;shadow=0;sketch=0;" parent="8r3OX-Z8Waoc3_b8A32Y-21" vertex="1">
          <mxGeometry x="125" y="85" width="10" height="10" as="geometry" />
        </mxCell>
        <mxCell id="8r3OX-Z8Waoc3_b8A32Y-69" value="" style="endArrow=none;html=1;rounded=0;exitX=0.75;exitY=1;exitDx=0;exitDy=0;entryX=1;entryY=0.75;entryDx=0;entryDy=0;" parent="8r3OX-Z8Waoc3_b8A32Y-21" source="8r3OX-Z8Waoc3_b8A32Y-22" target="8r3OX-Z8Waoc3_b8A32Y-22" edge="1">
          <mxGeometry width="50" height="50" relative="1" as="geometry">
            <mxPoint x="150" y="40" as="sourcePoint" />
            <mxPoint x="200" y="-10" as="targetPoint" />
          </mxGeometry>
        </mxCell>
        <mxCell id="8r3OX-Z8Waoc3_b8A32Y-41" value="" style="group" parent="8r3OX-Z8Waoc3_b8A32Y-9" vertex="1" connectable="0">
          <mxGeometry x="269.99999999999994" y="100" width="140.00000000000006" height="80" as="geometry" />
        </mxCell>
        <mxCell id="8r3OX-Z8Waoc3_b8A32Y-42" value="" style="html=1;dashed=0;whitespace=wrap;rounded=0;sketch=0;strokeColor=#000000;align=left;" parent="8r3OX-Z8Waoc3_b8A32Y-41" vertex="1">
          <mxGeometry x="-10" y="-10" width="150" height="90" as="geometry" />
        </mxCell>
        <mxCell id="8r3OX-Z8Waoc3_b8A32Y-43" value="3.3" style="text;html=1;resizable=0;autosize=1;align=center;verticalAlign=middle;points=[];fillColor=none;rounded=0;sketch=0;strokeColor=#000000;" parent="8r3OX-Z8Waoc3_b8A32Y-41" vertex="1">
          <mxGeometry x="-10" y="-10" width="40" height="30" as="geometry" />
        </mxCell>
        <mxCell id="8r3OX-Z8Waoc3_b8A32Y-44" value="Felhasználó&lt;br&gt;létrehozása &lt;br&gt;és átirányítása" style="text;html=1;resizable=0;autosize=1;align=center;verticalAlign=middle;points=[];fillColor=none;strokeColor=none;rounded=0;sketch=0;" parent="8r3OX-Z8Waoc3_b8A32Y-41" vertex="1">
          <mxGeometry x="15" y="20" width="100" height="60" as="geometry" />
        </mxCell>
        <mxCell id="8r3OX-Z8Waoc3_b8A32Y-45" value="Bejelentkezés" style="rounded=0;whiteSpace=wrap;html=1;sketch=0;strokeColor=#000000;align=left;" parent="8r3OX-Z8Waoc3_b8A32Y-41" vertex="1">
          <mxGeometry x="30" y="-10" width="110" height="30" as="geometry" />
        </mxCell>
        <mxCell id="8r3OX-Z8Waoc3_b8A32Y-71" value="" style="dashed=0;aspect=fixed;verticalLabelPosition=bottom;verticalAlign=top;align=center;shape=mxgraph.gmdl.star;strokeColor=none;fillColor=#737373;shadow=0;sketch=0;" parent="8r3OX-Z8Waoc3_b8A32Y-41" vertex="1">
          <mxGeometry x="125.00000000000006" y="66" width="10" height="10" as="geometry" />
        </mxCell>
        <mxCell id="8r3OX-Z8Waoc3_b8A32Y-75" value="" style="endArrow=none;html=1;rounded=0;exitX=0.75;exitY=1;exitDx=0;exitDy=0;entryX=1;entryY=0.75;entryDx=0;entryDy=0;" parent="8r3OX-Z8Waoc3_b8A32Y-41" edge="1">
          <mxGeometry width="50" height="50" relative="1" as="geometry">
            <mxPoint x="105.00000000000006" y="80" as="sourcePoint" />
            <mxPoint x="140.00000000000006" y="55" as="targetPoint" />
          </mxGeometry>
        </mxCell>
        <mxCell id="8r3OX-Z8Waoc3_b8A32Y-46" value="" style="endArrow=classic;html=1;rounded=0;entryX=0;entryY=0.25;entryDx=0;entryDy=0;" parent="8r3OX-Z8Waoc3_b8A32Y-9" target="8r3OX-Z8Waoc3_b8A32Y-42" edge="1">
          <mxGeometry relative="1" as="geometry">
            <mxPoint x="180" y="113" as="sourcePoint" />
            <mxPoint x="260" y="190" as="targetPoint" />
          </mxGeometry>
        </mxCell>
        <mxCell id="8r3OX-Z8Waoc3_b8A32Y-47" value="Sikeres" style="edgeLabel;resizable=0;html=1;align=center;verticalAlign=middle;" parent="8r3OX-Z8Waoc3_b8A32Y-46" connectable="0" vertex="1">
          <mxGeometry relative="1" as="geometry">
            <mxPoint y="-9" as="offset" />
          </mxGeometry>
        </mxCell>
        <mxCell id="wDr-xQ6FFst1DWx3IoZx-3" value="Adatok" style="edgeLabel;resizable=0;html=1;align=center;verticalAlign=middle;" connectable="0" vertex="1" parent="8r3OX-Z8Waoc3_b8A32Y-9">
          <mxGeometry x="429.99989437506974" y="95" as="geometry" />
        </mxCell>
        <mxCell id="8r3OX-Z8Waoc3_b8A32Y-14" value="Admin" style="ellipse;whiteSpace=wrap;html=1;" parent="1" vertex="1">
          <mxGeometry x="-115" y="330" width="80" height="40" as="geometry" />
        </mxCell>
        <mxCell id="8r3OX-Z8Waoc3_b8A32Y-15" value="Látogató" style="ellipse;whiteSpace=wrap;html=1;" parent="1" vertex="1">
          <mxGeometry x="-120" y="208.75" width="90" height="50" as="geometry" />
        </mxCell>
        <mxCell id="8r3OX-Z8Waoc3_b8A32Y-26" value="" style="endArrow=classic;html=1;rounded=0;exitX=1;exitY=0.5;exitDx=0;exitDy=0;" parent="1" source="8r3OX-Z8Waoc3_b8A32Y-15" edge="1">
          <mxGeometry relative="1" as="geometry">
            <mxPoint x="360" y="330" as="sourcePoint" />
            <mxPoint x="160" y="234" as="targetPoint" />
          </mxGeometry>
        </mxCell>
        <mxCell id="8r3OX-Z8Waoc3_b8A32Y-27" value="Regisztrálási adatok" style="edgeLabel;resizable=0;html=1;align=center;verticalAlign=middle;" parent="8r3OX-Z8Waoc3_b8A32Y-26" connectable="0" vertex="1">
          <mxGeometry relative="1" as="geometry">
            <mxPoint x="-15" y="-9" as="offset" />
          </mxGeometry>
        </mxCell>
        <mxCell id="8r3OX-Z8Waoc3_b8A32Y-28" value="" style="endArrow=classic;html=1;rounded=0;exitX=1;exitY=0.5;exitDx=0;exitDy=0;entryX=-0.002;entryY=0.783;entryDx=0;entryDy=0;entryPerimeter=0;" parent="1" target="8r3OX-Z8Waoc3_b8A32Y-17" edge="1">
          <mxGeometry relative="1" as="geometry">
            <mxPoint x="-35" y="349.5" as="sourcePoint" />
            <mxPoint x="155" y="349.5" as="targetPoint" />
            <Array as="points">
              <mxPoint x="-35" y="250" />
            </Array>
          </mxGeometry>
        </mxCell>
        <mxCell id="8r3OX-Z8Waoc3_b8A32Y-29" value="Regisztrálási adatok" style="edgeLabel;resizable=0;html=1;align=center;verticalAlign=middle;" parent="8r3OX-Z8Waoc3_b8A32Y-28" connectable="0" vertex="1">
          <mxGeometry relative="1" as="geometry">
            <mxPoint x="38" y="9" as="offset" />
          </mxGeometry>
        </mxCell>
        <mxCell id="8r3OX-Z8Waoc3_b8A32Y-31" value="" style="endArrow=classic;html=1;rounded=0;exitX=0.007;exitY=0.897;exitDx=0;exitDy=0;entryX=0.5;entryY=1;entryDx=0;entryDy=0;exitPerimeter=0;" parent="1" source="8r3OX-Z8Waoc3_b8A32Y-22" target="8r3OX-Z8Waoc3_b8A32Y-14" edge="1">
          <mxGeometry relative="1" as="geometry">
            <mxPoint x="280" y="330" as="sourcePoint" />
            <mxPoint x="380" y="330" as="targetPoint" />
            <Array as="points">
              <mxPoint x="-75" y="400" />
            </Array>
          </mxGeometry>
        </mxCell>
        <mxCell id="8r3OX-Z8Waoc3_b8A32Y-32" value="Visszajelzés" style="edgeLabel;resizable=0;html=1;align=center;verticalAlign=middle;" parent="8r3OX-Z8Waoc3_b8A32Y-31" connectable="0" vertex="1">
          <mxGeometry relative="1" as="geometry">
            <mxPoint y="-10" as="offset" />
          </mxGeometry>
        </mxCell>
        <mxCell id="8r3OX-Z8Waoc3_b8A32Y-33" value="" style="endArrow=classic;html=1;rounded=0;entryX=0;entryY=0.5;entryDx=0;entryDy=0;" parent="1" target="8r3OX-Z8Waoc3_b8A32Y-15" edge="1">
          <mxGeometry relative="1" as="geometry">
            <mxPoint x="160" y="410" as="sourcePoint" />
            <mxPoint x="-65" y="380" as="targetPoint" />
            <Array as="points">
              <mxPoint x="-65" y="410" />
              <mxPoint x="-120" y="410" />
            </Array>
          </mxGeometry>
        </mxCell>
        <mxCell id="8r3OX-Z8Waoc3_b8A32Y-34" value="Visszajelzés" style="edgeLabel;resizable=0;html=1;align=center;verticalAlign=middle;" parent="8r3OX-Z8Waoc3_b8A32Y-33" connectable="0" vertex="1">
          <mxGeometry relative="1" as="geometry">
            <mxPoint x="93" y="10" as="offset" />
          </mxGeometry>
        </mxCell>
        <mxCell id="8r3OX-Z8Waoc3_b8A32Y-38" value="D2&lt;span style=&quot;white-space: pre;&quot;&gt;&#x9;&lt;/span&gt;Felhasználók" style="html=1;dashed=0;whitespace=wrap;shape=mxgraph.dfd.dataStoreID;align=left;spacingLeft=3;points=[[0,0],[0.5,0],[1,0],[0,0.5],[1,0.5],[0,1],[0.5,1],[1,1]];" parent="1" vertex="1">
          <mxGeometry x="650" y="190" width="110" height="30" as="geometry" />
        </mxCell>
        <mxCell id="8r3OX-Z8Waoc3_b8A32Y-49" value="" style="endArrow=classic;html=1;rounded=0;" parent="1" edge="1">
          <mxGeometry relative="1" as="geometry">
            <mxPoint x="230" y="270" as="sourcePoint" />
            <mxPoint x="230" y="310" as="targetPoint" />
          </mxGeometry>
        </mxCell>
        <mxCell id="8r3OX-Z8Waoc3_b8A32Y-50" value="Sikertelen" style="edgeLabel;resizable=0;html=1;align=center;verticalAlign=middle;" parent="8r3OX-Z8Waoc3_b8A32Y-49" connectable="0" vertex="1">
          <mxGeometry relative="1" as="geometry">
            <mxPoint x="32" as="offset" />
          </mxGeometry>
        </mxCell>
        <mxCell id="8r3OX-Z8Waoc3_b8A32Y-51" value="" style="group" parent="1" vertex="1" connectable="0">
          <mxGeometry x="640" y="250" width="140" height="80" as="geometry" />
        </mxCell>
        <mxCell id="8r3OX-Z8Waoc3_b8A32Y-52" value="" style="html=1;dashed=0;whitespace=wrap;rounded=0;sketch=0;strokeColor=#000000;align=left;" parent="8r3OX-Z8Waoc3_b8A32Y-51" vertex="1">
          <mxGeometry y="-10" width="140" height="90" as="geometry" />
        </mxCell>
        <mxCell id="8r3OX-Z8Waoc3_b8A32Y-53" value="4" style="text;html=1;resizable=0;autosize=1;align=center;verticalAlign=middle;points=[];fillColor=none;rounded=0;sketch=0;strokeColor=#000000;" parent="8r3OX-Z8Waoc3_b8A32Y-51" vertex="1">
          <mxGeometry y="-10" width="30" height="30" as="geometry" />
        </mxCell>
        <mxCell id="8r3OX-Z8Waoc3_b8A32Y-54" value="Könyvek böngészése" style="text;html=1;resizable=0;autosize=1;align=center;verticalAlign=middle;points=[];fillColor=none;strokeColor=none;rounded=0;sketch=0;" parent="8r3OX-Z8Waoc3_b8A32Y-51" vertex="1">
          <mxGeometry y="25" width="140" height="30" as="geometry" />
        </mxCell>
        <mxCell id="8r3OX-Z8Waoc3_b8A32Y-55" value="Böngésző" style="rounded=0;whiteSpace=wrap;html=1;sketch=0;strokeColor=#000000;align=left;" parent="8r3OX-Z8Waoc3_b8A32Y-51" vertex="1">
          <mxGeometry x="30" y="-10" width="110" height="30" as="geometry" />
        </mxCell>
        <mxCell id="8r3OX-Z8Waoc3_b8A32Y-72" value="" style="dashed=0;aspect=fixed;verticalLabelPosition=bottom;verticalAlign=top;align=center;shape=mxgraph.gmdl.star;strokeColor=none;fillColor=#737373;shadow=0;sketch=0;" parent="8r3OX-Z8Waoc3_b8A32Y-51" vertex="1">
          <mxGeometry x="126" y="65" width="10" height="10" as="geometry" />
        </mxCell>
        <mxCell id="8r3OX-Z8Waoc3_b8A32Y-80" value="" style="endArrow=none;html=1;rounded=0;exitX=0.75;exitY=1;exitDx=0;exitDy=0;entryX=1;entryY=0.75;entryDx=0;entryDy=0;" parent="8r3OX-Z8Waoc3_b8A32Y-51" source="8r3OX-Z8Waoc3_b8A32Y-52" target="8r3OX-Z8Waoc3_b8A32Y-52" edge="1">
          <mxGeometry width="50" height="50" relative="1" as="geometry">
            <mxPoint x="-305" y="230" as="sourcePoint" />
            <mxPoint x="-270" y="205" as="targetPoint" />
          </mxGeometry>
        </mxCell>
        <mxCell id="8r3OX-Z8Waoc3_b8A32Y-59" value="" style="endArrow=classic;html=1;rounded=0;exitX=1;exitY=0.5;exitDx=0;exitDy=0;entryX=-0.033;entryY=0.856;entryDx=0;entryDy=0;entryPerimeter=0;" parent="1" source="8r3OX-Z8Waoc3_b8A32Y-42" target="8r3OX-Z8Waoc3_b8A32Y-53" edge="1">
          <mxGeometry width="50" height="50" relative="1" as="geometry">
            <mxPoint x="310" y="340" as="sourcePoint" />
            <mxPoint x="360" y="290" as="targetPoint" />
          </mxGeometry>
        </mxCell>
        <mxCell id="8r3OX-Z8Waoc3_b8A32Y-60" value="" style="group" parent="1" vertex="1" connectable="0">
          <mxGeometry x="640" y="370" width="140" height="80" as="geometry" />
        </mxCell>
        <mxCell id="8r3OX-Z8Waoc3_b8A32Y-61" value="" style="html=1;dashed=0;whitespace=wrap;rounded=0;sketch=0;strokeColor=#000000;align=left;" parent="8r3OX-Z8Waoc3_b8A32Y-60" vertex="1">
          <mxGeometry y="-10" width="140" height="90" as="geometry" />
        </mxCell>
        <mxCell id="8r3OX-Z8Waoc3_b8A32Y-62" value="5." style="text;html=1;resizable=0;autosize=1;align=center;verticalAlign=middle;points=[];fillColor=none;rounded=0;sketch=0;strokeColor=#000000;" parent="8r3OX-Z8Waoc3_b8A32Y-60" vertex="1">
          <mxGeometry y="-10" width="30" height="30" as="geometry" />
        </mxCell>
        <mxCell id="8r3OX-Z8Waoc3_b8A32Y-63" value="Könyvek, Műfajok,&lt;br&gt;Áruházak és&lt;br&gt;Készletek kezelése" style="text;html=1;resizable=0;autosize=1;align=center;verticalAlign=middle;points=[];fillColor=none;strokeColor=none;rounded=0;sketch=0;" parent="8r3OX-Z8Waoc3_b8A32Y-60" vertex="1">
          <mxGeometry x="5" y="15" width="130" height="60" as="geometry" />
        </mxCell>
        <mxCell id="8r3OX-Z8Waoc3_b8A32Y-64" value="Admin oldal" style="rounded=0;whiteSpace=wrap;html=1;sketch=0;strokeColor=#000000;align=left;" parent="8r3OX-Z8Waoc3_b8A32Y-60" vertex="1">
          <mxGeometry x="30" y="-10" width="110" height="30" as="geometry" />
        </mxCell>
        <mxCell id="8r3OX-Z8Waoc3_b8A32Y-73" value="" style="dashed=0;aspect=fixed;verticalLabelPosition=bottom;verticalAlign=top;align=center;shape=mxgraph.gmdl.star;strokeColor=none;fillColor=#737373;shadow=0;sketch=0;" parent="8r3OX-Z8Waoc3_b8A32Y-60" vertex="1">
          <mxGeometry x="125" y="65" width="10" height="10" as="geometry" />
        </mxCell>
        <mxCell id="8r3OX-Z8Waoc3_b8A32Y-79" value="" style="endArrow=none;html=1;rounded=0;exitX=1;exitY=0.75;exitDx=0;exitDy=0;entryX=0.75;entryY=1;entryDx=0;entryDy=0;" parent="8r3OX-Z8Waoc3_b8A32Y-60" source="8r3OX-Z8Waoc3_b8A32Y-61" target="8r3OX-Z8Waoc3_b8A32Y-61" edge="1">
          <mxGeometry width="50" height="50" relative="1" as="geometry">
            <mxPoint x="-315" y="100" as="sourcePoint" />
            <mxPoint x="-280" y="75" as="targetPoint" />
          </mxGeometry>
        </mxCell>
        <mxCell id="8r3OX-Z8Waoc3_b8A32Y-65" value="" style="endArrow=classic;html=1;rounded=0;exitX=1;exitY=0.75;exitDx=0;exitDy=0;entryX=0;entryY=0.5;entryDx=0;entryDy=0;" parent="1" source="8r3OX-Z8Waoc3_b8A32Y-42" target="8r3OX-Z8Waoc3_b8A32Y-61" edge="1">
          <mxGeometry width="50" height="50" relative="1" as="geometry">
            <mxPoint x="310" y="340" as="sourcePoint" />
            <mxPoint x="360" y="290" as="targetPoint" />
            <Array as="points">
              <mxPoint x="580" y="288" />
              <mxPoint x="580" y="405" />
            </Array>
          </mxGeometry>
        </mxCell>
        <mxCell id="8r3OX-Z8Waoc3_b8A32Y-39" value="" style="endArrow=none;html=1;rounded=0;exitX=1;exitY=0.829;exitDx=0;exitDy=0;entryX=0;entryY=0.5;entryDx=0;entryDy=0;exitPerimeter=0;startArrow=classic;startFill=1;endFill=0;" parent="1" source="8r3OX-Z8Waoc3_b8A32Y-20" target="8r3OX-Z8Waoc3_b8A32Y-38" edge="1">
          <mxGeometry relative="1" as="geometry">
            <mxPoint x="630" y="220" as="sourcePoint" />
            <mxPoint x="650" y="230" as="targetPoint" />
            <Array as="points">
              <mxPoint x="380" y="205" />
              <mxPoint x="560" y="205" />
            </Array>
          </mxGeometry>
        </mxCell>
        <mxCell id="8r3OX-Z8Waoc3_b8A32Y-40" value="Adatok" style="edgeLabel;resizable=0;html=1;align=center;verticalAlign=middle;" parent="8r3OX-Z8Waoc3_b8A32Y-39" connectable="0" vertex="1">
          <mxGeometry relative="1" as="geometry">
            <mxPoint y="-9" as="offset" />
          </mxGeometry>
        </mxCell>
        <mxCell id="wDr-xQ6FFst1DWx3IoZx-2" value="" style="endArrow=classic;html=1;rounded=0;exitX=1;exitY=0.5;exitDx=0;exitDy=0;entryX=0;entryY=1;entryDx=0;entryDy=0;" edge="1" parent="1" target="8r3OX-Z8Waoc3_b8A32Y-38">
          <mxGeometry width="50" height="50" relative="1" as="geometry">
            <mxPoint x="531" y="233.25" as="sourcePoint" />
            <mxPoint x="640" y="234.25" as="targetPoint" />
            <Array as="points">
              <mxPoint x="570" y="233" />
              <mxPoint x="570" y="220" />
            </Array>
          </mxGeometry>
        </mxCell>
      </root>
    </mxGraphModel>
  </diagram>
</mxfile>
